<svg xmlns="http://www.w3.org/2000/svg" xmlns:xlink="http://www.w3.org/1999/xlink" width="1080" zoomAndPan="magnify" viewBox="0 0 810 809.999993" height="1080" preserveAspectRatio="xMidYMid meet" version="1.0"><defs><clipPath id="id1"><path d="M 1 149 L 798 149 L 798 644 L 1 644 Z M 1 149 " clip-rule="nonzero"/></clipPath><clipPath id="id2"><path d="M 149.1875 26.261719 L 865.441406 248.707031 L 716.179688 729.3125 L -0.0742188 506.867188 Z M 149.1875 26.261719 " clip-rule="nonzero"/></clipPath><clipPath id="id3"><path d="M 865.183594 248.625 L 148.929688 26.179688 L -0.332031 506.789062 L 715.921875 729.230469 Z M 865.183594 248.625 " clip-rule="nonzero"/></clipPath></defs><g clip-path="url(#id1)"><g clip-path="url(#id2)"><g clip-path="url(#id3)"><path fill="#719ddd" d="M 581.917969 161.585938 C 539.191406 147.382812 493.191406 145.234375 449.285156 155.867188 C 420.53125 162.808594 391.480469 169.1875 364.085938 180.75 C 332.921875 193.945312 304.722656 214.125 281.980469 239.265625 C 253.582031 270.589844 233.171875 306.257812 214.066406 343.730469 C 202.273438 366.671875 189.5 389.777344 176.5625 411.898438 C 162.832031 436.570312 141.675781 456.605469 116.28125 469.257812 C 101.484375 476.328125 87.726562 486.058594 71.726562 489.492188 C 53.070312 493.964844 33.664062 496.339844 14.496094 496.457031 C 12.234375 496.21875 9.546875 495.851562 7.449219 496.601562 C 4.792969 497.644531 3.28125 499.507812 2.0625 501.929688 C 1.136719 504.910156 3.027344 507.832031 5.582031 508.625 C 6.007812 508.753906 6.433594 508.886719 6.859375 509.019531 C 37.976562 514.015625 66.582031 527.101562 97.195312 535.210938 C 134.199219 545.300781 171.097656 557.226562 207.703125 568.59375 C 258.777344 584.457031 309.457031 601.597656 360.667969 617.035156 C 401.394531 630.148438 443.445312 639.007812 486.101562 642.921875 C 498.386719 643.933594 510.933594 644.097656 523.324219 643.277344 C 566.125 640.703125 608.519531 631.929688 648.828125 617.84375 C 660.867188 613.648438 672.449219 607.910156 683.019531 600.925781 C 722.800781 575.007812 755.894531 539.078125 778.289062 497.023438 C 799.070312 458.667969 800.355469 418.460938 793.027344 377.445312 C 785.316406 331.640625 766.023438 291.578125 731.246094 259.304688 C 723.921875 252.832031 717.15625 246.0625 710.523438 238.867188 C 674.378906 201.972656 631.160156 177.347656 581.917969 161.585938 Z M 581.917969 161.585938 " fill-opacity="1" fill-rule="nonzero"/></g></g></g></svg>