<svg xmlns="http://www.w3.org/2000/svg" xmlns:xlink="http://www.w3.org/1999/xlink" width="1080" zoomAndPan="magnify" viewBox="0 0 810 809.999993" height="1080" preserveAspectRatio="xMidYMid meet" version="1.0"><defs><clipPath id="id1"><path d="M 4 125 L 808 125 L 808 622 L 4 622 Z M 4 125 " clip-rule="nonzero"/></clipPath><clipPath id="id2"><path d="M -81.84375 268.128906 L 604.84375 -37.179688 L 809.601562 423.351562 L 122.917969 728.660156 Z M -81.84375 268.128906 " clip-rule="nonzero"/></clipPath><clipPath id="id3"><path d="M -81.84375 268.128906 L 604.84375 -37.179688 L 809.601562 423.351562 L 122.917969 728.660156 Z M -81.84375 268.128906 " clip-rule="nonzero"/></clipPath><clipPath id="id4"><path d="M -81.84375 268.128906 L 604.84375 -37.179688 L 809.601562 423.351562 L 122.917969 728.660156 Z M -81.84375 268.128906 " clip-rule="nonzero"/></clipPath></defs><g clip-path="url(#id1)"><g clip-path="url(#id2)"><g clip-path="url(#id3)"><g clip-path="url(#id4)"><path fill="#ed1c24" d="M 189.839844 148.3125 C 230.691406 129.171875 276.214844 121.636719 321.144531 127.0625 C 350.570312 130.589844 380.222656 133.527344 408.832031 141.816406 C 441.386719 151.28125 471.8125 168.042969 497.382812 190.382812 C 529.304688 218.207031 553.785156 251.289062 577.183594 286.324219 C 591.601562 307.757812 607.015625 329.242188 622.476562 349.726562 C 639.027344 372.65625 662.421875 390.101562 689.171875 399.703125 C 704.726562 405.003906 719.550781 413.066406 735.875 414.605469 C 754.960938 416.867188 774.550781 416.953125 793.636719 414.816406 C 795.859375 414.316406 798.488281 413.636719 800.664062 414.132812 C 803.429688 414.859375 805.152344 416.535156 806.648438 418.800781 C 807.917969 421.65625 806.378906 424.785156 803.929688 425.871094 C 803.519531 426.054688 803.113281 426.234375 802.707031 426.417969 C 772.328125 435.039062 745.394531 451.410156 715.878906 463.066406 C 680.242188 477.445312 644.921875 493.640625 609.828125 509.242188 C 560.863281 531.011719 512.4375 554.007812 463.289062 575.371094 C 424.296875 593.195312 383.492188 606.941406 341.507812 615.839844 C 329.402344 618.289062 316.933594 619.925781 304.511719 620.5625 C 261.617188 623.023438 218.410156 619.273438 176.652344 609.992188 C 164.183594 607.230469 151.988281 602.882812 140.652344 597.175781 C 98.03125 576.0625 60.898438 544.207031 33.691406 505.003906 C 8.527344 469.292969 2.542969 429.449219 5.039062 387.792969 C 7.347656 341.328125 21.859375 299.214844 52.6875 263.03125 C 59.21875 255.734375 65.15625 248.207031 70.914062 240.273438 C 102.5625 199.332031 142.6875 169.765625 189.839844 148.3125 Z M 189.839844 148.3125 " fill-opacity="1" fill-rule="nonzero"/></g></g></g></g></svg>