<svg xmlns="http://www.w3.org/2000/svg" xmlns:xlink="http://www.w3.org/1999/xlink" width="1080" zoomAndPan="magnify" viewBox="0 0 810 809.999993" height="1080" preserveAspectRatio="xMidYMid meet" version="1.0"><defs><clipPath id="id1"><path d="M 2 152 L 806 152 L 806 657 L 2 657 Z M 2 152 " clip-rule="nonzero"/></clipPath><clipPath id="id2"><path d="M 120.894531 50.410156 L 863.605469 230.566406 L 742.675781 729.109375 L -0.0351562 548.953125 Z M 120.894531 50.410156 " clip-rule="nonzero"/></clipPath><clipPath id="id3"><path d="M 863.753906 230.605469 L 121.042969 50.449219 L 0.113281 548.992188 L 742.824219 729.148438 Z M 863.753906 230.605469 " clip-rule="nonzero"/></clipPath></defs><g clip-path="url(#id1)"><g clip-path="url(#id2)"><g clip-path="url(#id3)"><path fill="#ffffff" d="M 570.082031 160.304688 C 525.71875 148.609375 478.800781 149.382812 434.832031 163.03125 C 406.03125 171.941406 376.898438 180.304688 349.78125 193.835938 C 318.933594 209.261719 291.550781 231.609375 270.035156 258.652344 C 243.171875 292.34375 224.703125 329.945312 207.679688 369.300781 C 197.160156 393.398438 185.652344 417.726562 173.917969 441.0625 C 161.539062 467.050781 141.308594 488.792969 116.292969 503.296875 C 101.699219 511.445312 88.335938 522.230469 72.28125 526.753906 C 53.597656 532.507812 34.011719 536.175781 14.523438 537.523438 C 12.210938 537.429688 9.457031 537.230469 7.371094 538.128906 C 4.734375 539.359375 3.316406 541.351562 2.230469 543.894531 C 1.480469 546.984375 3.59375 549.835938 6.242188 550.476562 C 6.683594 550.585938 7.125 550.691406 7.566406 550.800781 C 39.535156 553.878906 69.464844 565.347656 101.121094 571.621094 C 139.402344 579.503906 177.691406 589.261719 215.648438 598.46875 C 268.613281 611.3125 321.253906 625.484375 374.324219 637.890625 C 416.585938 648.609375 459.921875 654.914062 503.550781 656.144531 C 516.113281 656.386719 528.886719 655.746094 541.433594 654.113281 C 584.796875 648.734375 627.347656 637.078125 667.4375 620.152344 C 679.410156 615.109375 690.820312 608.527344 701.121094 600.738281 C 739.914062 571.808594 771.261719 533.125 791.335938 488.898438 C 810.007812 448.542969 808.730469 407.554688 798.644531 366.300781 C 787.863281 320.203125 765.667969 280.6875 728.222656 250.097656 C 720.363281 243.980469 713.046875 237.53125 705.839844 230.640625 C 666.710938 195.433594 621.171875 173.164062 570.082031 160.304688 Z M 570.082031 160.304688 " fill-opacity="1" fill-rule="nonzero"/></g></g></g></svg>