<svg xmlns="http://www.w3.org/2000/svg" xmlns:xlink="http://www.w3.org/1999/xlink" width="1080" zoomAndPan="magnify" viewBox="0 0 810 809.999993" height="1080" preserveAspectRatio="xMidYMid meet" version="1.0"><defs><clipPath id="id1"><path d="M 3 184 L 808 184 L 808 682 L 3 682 Z M 3 184 " clip-rule="nonzero"/></clipPath><clipPath id="id2"><path d="M -83.222656 327.15625 L 604.835938 21.234375 L 810.203125 483.136719 L 122.148438 789.058594 Z M -83.222656 327.15625 " clip-rule="nonzero"/></clipPath><clipPath id="id3"><path d="M -83.222656 327.15625 L 604.835938 21.234375 L 810.203125 483.136719 L 122.148438 789.058594 Z M -83.222656 327.15625 " clip-rule="nonzero"/></clipPath></defs><g clip-path="url(#id1)"><g clip-path="url(#id2)"><g clip-path="url(#id3)"><path fill="#fbbe07" d="M 189.003906 207.101562 C 229.9375 187.921875 275.554688 180.378906 320.585938 185.835938 C 350.074219 189.382812 379.792969 192.339844 408.46875 200.664062 C 441.097656 210.164062 471.589844 226.988281 497.226562 249.398438 C 529.226562 277.3125 553.773438 310.496094 577.234375 345.636719 C 591.691406 367.140625 607.148438 388.6875 622.648438 409.234375 C 639.242188 432.238281 662.695312 449.742188 689.507812 459.378906 C 705.097656 464.699219 719.957031 472.792969 736.316406 474.339844 C 755.445312 476.613281 775.074219 476.707031 794.203125 474.570312 C 796.429688 474.070312 799.066406 473.390625 801.246094 473.890625 C 804.019531 474.617188 805.746094 476.296875 807.246094 478.570312 C 808.519531 481.4375 806.976562 484.570312 804.523438 485.664062 C 804.113281 485.84375 803.707031 486.027344 803.296875 486.207031 C 772.855469 494.84375 745.871094 511.25 716.296875 522.929688 C 680.585938 537.335938 645.195312 553.5625 610.03125 569.195312 C 560.964844 591.011719 512.445312 614.054688 463.199219 635.460938 C 424.128906 653.320312 383.238281 667.09375 341.167969 676 C 329.035156 678.453125 316.539062 680.085938 304.089844 680.722656 C 261.105469 683.175781 217.800781 679.398438 175.949219 670.074219 C 163.453125 667.300781 151.230469 662.9375 139.867188 657.207031 C 97.148438 636.023438 59.921875 604.0625 32.644531 564.742188 C 7.414062 528.917969 1.402344 488.960938 3.882812 447.1875 C 6.183594 400.59375 20.710938 358.367188 51.59375 322.09375 C 58.132812 314.777344 64.085938 307.230469 69.851562 299.277344 C 101.554688 258.230469 141.753906 228.597656 189.003906 207.101562 Z M 189.003906 207.101562 " fill-opacity="1" fill-rule="nonzero"/></g></g></g></svg>