<svg xmlns="http://www.w3.org/2000/svg" xmlns:xlink="http://www.w3.org/1999/xlink" width="1080" zoomAndPan="magnify" viewBox="0 0 810 809.999993" height="1080" preserveAspectRatio="xMidYMid meet" version="1.0"><defs><clipPath id="id1"><path d="M 1 115 L 804 115 L 804 618 L 1 618 Z M 1 115 " clip-rule="nonzero"/></clipPath><clipPath id="id2"><path d="M 120.527344 13.933594 L 861.050781 193.558594 L 740.476562 690.644531 L -0.0507812 511.019531 Z M 120.527344 13.933594 " clip-rule="nonzero"/></clipPath><clipPath id="id3"><path d="M 861.132812 193.578125 L 120.605469 13.953125 L 0.03125 511.039062 L 740.554688 690.664062 Z M 861.132812 193.578125 " clip-rule="nonzero"/></clipPath></defs><g clip-path="url(#id1)"><g clip-path="url(#id2)"><g clip-path="url(#id3)"><path fill="#f74700" d="M 568.324219 123.488281 C 524.09375 111.824219 477.308594 112.597656 433.472656 126.207031 C 404.757812 135.089844 375.710938 143.429688 348.675781 156.917969 C 317.917969 172.300781 290.613281 194.582031 269.164062 221.546875 C 242.375 255.140625 223.960938 292.632812 206.988281 331.871094 C 196.5 355.902344 185.027344 380.15625 173.324219 403.425781 C 160.980469 429.335938 140.8125 451.015625 115.871094 465.476562 C 101.320312 473.605469 87.996094 484.355469 71.988281 488.867188 C 53.359375 494.601562 33.832031 498.257812 14.402344 499.605469 C 12.09375 499.511719 9.347656 499.3125 7.269531 500.207031 C 4.640625 501.433594 3.226562 503.421875 2.144531 505.957031 C 1.398438 509.039062 3.503906 511.882812 6.144531 512.519531 C 6.585938 512.628906 7.023438 512.734375 7.464844 512.839844 C 39.335938 515.910156 69.179688 527.34375 100.746094 533.601562 C 138.910156 541.460938 177.089844 551.1875 214.933594 560.367188 C 267.742188 573.179688 320.226562 587.308594 373.140625 599.675781 C 415.28125 610.363281 458.488281 616.648438 501.988281 617.878906 C 514.511719 618.117188 527.246094 617.476562 539.757812 615.851562 C 582.992188 610.488281 625.417969 598.867188 665.390625 581.988281 C 677.324219 576.960938 688.703125 570.394531 698.972656 562.628906 C 737.65625 533.785156 768.910156 495.214844 788.925781 451.117188 C 807.539062 410.878906 806.269531 370.011719 796.210938 328.878906 C 785.460938 282.914062 763.332031 243.515625 726 213.015625 C 718.160156 206.917969 710.867188 200.484375 703.679688 193.613281 C 664.667969 158.511719 619.265625 136.308594 568.324219 123.488281 Z M 568.324219 123.488281 " fill-opacity="1" fill-rule="nonzero"/></g></g></g></svg>