<?xml version="1.0" encoding="utf-8"?>
<!-- Generator: Adobe Illustrator 24.2.1, SVG Export Plug-In . SVG Version: 6.00 Build 0)  -->
<svg version="1.1" id="Layer_1" xmlns="http://www.w3.org/2000/svg" xmlns:xlink="http://www.w3.org/1999/xlink" x="0px" y="0px"
	 viewBox="0 0 72 72" style="enable-background:new 0 0 72 72;" xml:space="preserve">
<style type="text/css">
	.st0{fill:#010101;}
</style>
<path class="st0" d="M37.31,6.75c1.01,0,1.8,0,2.88,0c0.47,3.34,0.8,6.64,1.46,9.93c0.85,3.85,3.33,6.74,5.93,9.54
	c5.33,5.91,12.46,11.41,6.03,19.46c-0.82,1.07-1.75,2.05-2.72,2.98c-0.35,0.34-0.95,0.42-1.66,0.3c4.29-5.16,6.52-9.46,2.3-14.49
	c-3.27-4.11-6.76-7.66-10.83-11.07c-0.11,1.13-0.33,2.42-0.36,3.71c-0.12,6.41-0.3,12.81-0.2,19.22c0.03,1.77,0.75,3.61,1.46,5.28
	c1.68,3.92,1.1,7.44-2.2,10.19c-4.65,3.88-10.13,5.65-16.16,5.43c-6.91-0.02-9.85-7.65-5-12.5c1.34-1.39,2.79-2.68,4.26-3.93
	c1.84-1.56,4.02-2.43,6.41-2.78c1.33-0.19,2.65-0.48,3.98-0.74c2.09-0.42,3.19-1.83,3.54-3.81c0.24-1.32,0.3-2.68,0.32-4.03
	C37,28.53,36.95,17.67,37.31,6.75z"/>
</svg>
