<?xml version="1.0" encoding="utf-8"?>
<!-- Generator: Adobe Illustrator 24.2.1, SVG Export Plug-In . SVG Version: 6.00 Build 0)  -->
<svg version="1.1" id="Layer_1" xmlns="http://www.w3.org/2000/svg" xmlns:xlink="http://www.w3.org/1999/xlink" x="0px" y="0px"
	 viewBox="0 0 72 72" style="enable-background:new 0 0 72 72;" xml:space="preserve">
<style type="text/css">
	.st0{fill:#010101;}
</style>
<path class="st0" d="M37.61,9.42c4.6-3.11,10.1-3.2,14.34-0.39c3.75,2.49,4.64,7.27,2.04,10.99c-0.46,0.66-1.28,1.41-1.22,2.05
	c0.12,1.22,0.65,2.44,1.22,3.55c0.22,0.43,0.99,0.58,1.53,0.83c7.54,3.37,6.19,14.26-1.94,15.73c-2.29,4.82-5.4,5.86-10.09,3.34
	c-0.81,0.39-1.64,0.89-2.54,1.19c-0.91,0.3-1.88,0.4-3.03,0.63c-0.07,0.46-0.21,1.02-0.22,1.58c-0.03,4.11,0.01,8.23-0.05,12.34
	c-0.03,1.86,0.49,3.22,2.46,3.71c0.32,0.08,0.59,0.33,0.85,0.73c-3.43,0.49-6.84,0.35-10.29,0.21c0.07-0.32,0.07-0.53,0.14-0.57
	c2.65-1.28,3.45-3.4,3.28-6.26c-0.22-3.89,0-7.89-0.04-11.78c-1.69-0.51-3.18-0.95-4.66-1.43c-0.57-0.18-1.24-0.32-1.64-0.71
	c-4.21-3.91-9.29-0.63-14.55-6.42c-2.27-2.5-2.27-6.14,0.16-8.47c1.17-1.13,2.59-2,3.95-2.92c1.26-0.86,1.62-2.31,0.76-3.59
	c-1.97-2.93-1.87-5.92-0.09-8.84c1.5-2.46,4.23-3.31,7.72-2.62c0.14,0.03,0.29,0,0.58,0c0.32-2.99,1.44-5.56,4.71-6.25
	C33.86,5.47,36.03,6.81,37.61,9.42z"/>
</svg>
