<?xml version="1.0" encoding="utf-8"?>
<!-- Generator: Adobe Illustrator 24.2.1, SVG Export Plug-In . SVG Version: 6.00 Build 0)  -->
<svg version="1.1" id="Layer_1" xmlns="http://www.w3.org/2000/svg" xmlns:xlink="http://www.w3.org/1999/xlink" x="0px" y="0px"
	 viewBox="0 0 72 72" style="enable-background:new 0 0 72 72;" xml:space="preserve">
<style type="text/css">
	.st0{fill:#010101;}
</style>
<path class="st0" d="M1060.9,1807.71c-0.6-34.16,6.53-63.5,22.78-90.47c3.6-5.98,7.11-12.01,10.74-17.97
	c1.03-1.7,2.02-3.93,3.61-4.66c2.81-1.29,6.36-2.7,9.04-1.98c1.87,0.5,3.78,4.37,4.02,6.89c3.41,37.59,1.78,78.78,27.79,109.26
	c17.05,20.3,38.72,32.82,65.24,37.22c25.39,4.48,50.91,2.19,72.97-11.87c2.62-1.35,5.17-3.18,7.97-3.79
	c9.84-2.14,8.2,9.01,6.14,15.09c-12.29,40.77-49.61,63.67-88.42,74.42c-42.23,12.84-94.34-4.49-120.27-40.36
	c-2.62-3.81-5.16-7.78-6.98-12C1066.92,1847.52,1059.64,1827.19,1060.9,1807.71z"/>
<path class="st0" d="M7.11,35.86c-0.15-8.52,1.63-15.84,5.68-22.56c0.9-1.49,1.77-3,2.68-4.48c0.26-0.42,0.5-0.98,0.9-1.16
	c0.7-0.32,1.59-0.67,2.25-0.49c0.47,0.12,0.94,1.09,1,1.72c0.85,9.38,0.44,19.65,6.93,27.25c4.25,5.06,9.66,8.18,16.27,9.28
	c6.33,1.12,12.7,0.55,18.2-2.96c0.65-0.34,1.29-0.79,1.99-0.95c2.46-0.53,2.04,2.25,1.53,3.76c-3.07,10.17-12.37,15.88-22.05,18.56
	c-10.53,3.2-23.53-1.12-29.99-10.06c-0.65-0.95-1.29-1.94-1.74-2.99C8.61,45.79,6.79,40.72,7.11,35.86z"/>
</svg>
