<?xml version="1.0" encoding="utf-8"?>
<!-- Generator: Adobe Illustrator 24.2.1, SVG Export Plug-In . SVG Version: 6.00 Build 0)  -->
<svg version="1.1" id="Layer_1" xmlns="http://www.w3.org/2000/svg" xmlns:xlink="http://www.w3.org/1999/xlink" x="0px" y="0px"
	 viewBox="0 0 72 72" style="enable-background:new 0 0 72 72;" xml:space="preserve">
<style type="text/css">
	.st0{fill:#010101;}
</style>
<path class="st0" d="M1060.9,1807.71c-0.6-34.16,6.53-63.5,22.78-90.47c3.6-5.98,7.11-12.01,10.74-17.97
	c1.03-1.7,2.02-3.93,3.61-4.66c2.81-1.29,6.36-2.7,9.04-1.98c1.87,0.5,3.78,4.37,4.02,6.89c3.41,37.59,1.78,78.78,27.79,109.26
	c17.05,20.3,38.72,32.82,65.24,37.22c25.39,4.48,50.91,2.19,72.97-11.87c2.62-1.35,5.17-3.18,7.97-3.79
	c9.84-2.14,8.2,9.01,6.14,15.09c-12.29,40.77-49.61,63.67-88.42,74.42c-42.23,12.84-94.34-4.49-120.27-40.36
	c-2.62-3.81-5.16-7.78-6.98-12C1066.92,1847.52,1059.64,1827.19,1060.9,1807.71z"/>
<path class="st0" d="M46.09,29.15c3.98,0,7.7,0.02,11.41-0.01c2.51-0.02,3.11,0.45,3.09,2.89c-0.07,8.15-0.16,16.29-0.34,24.43
	c-0.03,1.53-0.36,3.09-0.82,4.55c-0.5,1.6-1.74,2.53-3.49,2.62c-2.63,0.14-5.26,0.36-7.9,0.41c-9.38,0.2-18.77,0.34-28.16,0.49
	c-1.47,0.02-2.96,0.04-4.42-0.12c-2.15-0.24-3-1.06-3.46-3.16c-0.18-0.83-0.28-1.69-0.29-2.53c-0.11-8.53-0.2-17.07-0.3-25.6
	c0-0.47-0.02-0.93,0-1.4c0.08-1.73,0.25-1.94,2.1-2.01c3.56-0.15,7.14-0.08,10.7-0.21c1.51-0.1,1.67-0.32,1.78-1.84
	c0.26-3.4,0.38-6.82,0.87-10.19c0.25-1.71,0.96-3.45,1.86-4.94c2.05-3.4,5.49-3.83,9.01-3.41c3.36,0.41,5.8,2.23,6.55,5.7
	C45.33,19.68,45.76,24.07,46.09,29.15z M35.98,29.75c0,0.02,0,0.04,0,0.06c1.4,0,2.8,0.02,4.19-0.01c0.96-0.02,1.69-0.35,1.63-1.5
	c-0.2-3.79-0.24-7.6-0.66-11.37c-0.29-2.6-2.02-3.87-4.64-4.07c-8.1-0.72-6.03,10.37-6.23,15.54c0,0.98,0.61,1.35,1.52,1.35
	C33.18,29.75,34.58,29.75,35.98,29.75z"/>
</svg>
