<?xml version="1.0" encoding="utf-8"?>
<!-- Generator: Adobe Illustrator 24.2.1, SVG Export Plug-In . SVG Version: 6.00 Build 0)  -->
<svg version="1.1" id="Layer_1" xmlns="http://www.w3.org/2000/svg" xmlns:xlink="http://www.w3.org/1999/xlink" x="0px" y="0px"
	 viewBox="0 0 72 72" style="enable-background:new 0 0 72 72;" xml:space="preserve">
<style type="text/css">
	.st0{fill:#010101;}
</style>
<path class="st0" d="M1060.9,1807.71c-0.6-34.16,6.53-63.5,22.78-90.47c3.6-5.98,7.11-12.01,10.74-17.97
	c1.03-1.7,2.02-3.93,3.61-4.66c2.81-1.29,6.36-2.7,9.04-1.98c1.87,0.5,3.78,4.37,4.02,6.89c3.41,37.59,1.78,78.78,27.79,109.26
	c17.05,20.3,38.72,32.82,65.24,37.22c25.39,4.48,50.91,2.19,72.97-11.87c2.62-1.35,5.17-3.18,7.97-3.79
	c9.84-2.14,8.2,9.01,6.14,15.09c-12.29,40.77-49.61,63.67-88.42,74.42c-42.23,12.84-94.34-4.49-120.27-40.36
	c-2.62-3.81-5.16-7.78-6.98-12C1066.92,1847.52,1059.64,1827.19,1060.9,1807.71z"/>
<path class="st0" d="M51.62,27.09c3.86-0.95,7.6-1.86,11.67-2.86c0.67,2.07,1.32,4.09,1.93,5.97c-0.27,0.34-0.35,0.54-0.47,0.58
	c-5.21,1.44-10.41,2.89-15.64,4.28c-1.89,0.5-2.27,0.28-3.32-1.42c-0.49-0.78-0.93-1.59-1.58-2.73c-0.53,2.29-0.99,4.14-1.39,6
	c-0.35,1.62-0.15,1.98,1.48,2.39c3.04,0.8,6.13,1.36,9.15,2.22c0.46,1.75-0.21,3.26-0.58,4.81c-1.75,7.21-3.23,14.36-5.15,21.54
	c-3.47-0.33-6.55-1.3-9.67-3c1.31-4.52,2.78-8.94,3.84-13.5c0.39-1.78,0.05-2.28-1.72-2.82c-0.54-0.17-1.12-0.24-1.63-0.47
	c-2.46-1.1-4.4-0.32-6,1.64c-3.45,4.25-6.65,8.28-10.11,12.61c-5.5-3.06-10.86-5.97-15.63-10.24c1.74-2.57,3.39-5.01,5.16-7.63
	c2.35,1.65,4.57,3.2,6.69,4.69c0.45-0.19,0.74-0.23,0.89-0.39c2.5-2.75,5.03-5.47,7.42-8.31c0.64-0.75,1.03-1.84,1.21-2.83
	c0.57-3.26,0.99-6.54,1.45-9.82c0.06-0.39,0.05-0.79,0.08-1.43c-2.1-0.75-4.2-1.51-6.53-2.34c-0.79,1.89-1.52,3.64-2.32,5.56
	c-2.55-0.87-5.04-1.72-7.69-2.63c1.24-5.27,3.77-9.87,5.6-15c5.8,2.89,11.46,5.62,17.02,8.54c1.33,0.7,2.5,0.98,3.89,0.57
	c2.01-0.6,4.02-1.2,6.03-1.81c1.64-0.5,1.86-0.39,2.6,1.15C49.35,22.57,50.44,24.72,51.62,27.09z"/>
<path class="st0" d="M43.91,11.5c0.32,2.93-1.86,5.28-5.47,5.34c-3.2,0.05-6.42-1.11-6.57-5.72C32.24,3.6,43.81,2.63,43.91,11.5z"/>
</svg>
