<?xml version="1.0" encoding="utf-8"?>
<!-- Generator: Adobe Illustrator 24.2.1, SVG Export Plug-In . SVG Version: 6.00 Build 0)  -->
<svg version="1.1" id="Layer_1" xmlns="http://www.w3.org/2000/svg" xmlns:xlink="http://www.w3.org/1999/xlink" x="0px" y="0px"
	 viewBox="0 0 72 72" style="enable-background:new 0 0 72 72;" xml:space="preserve">
<style type="text/css">
	.st0{fill:#010101;}
</style>
<path class="st0" d="M50.67,65.11c-10.73,0-21.45,0-32.2,0c0.05-0.3,0.01-0.53,0.12-0.59c4.15-2.27,8.3-4.55,12.51-6.75
	c1.07-0.56,1.62-1.11,1.64-2.2c0.07-6.23,0.32-12.46,0.33-18.69c0.01-3.87-0.33-7.75-0.44-11.63c-0.03-1.19-0.55-2.1-1.63-2.88
	c-6.68-4.73-13.15-9.65-19.57-14.61c-0.58-0.44-0.98-1.03-1.82-1.93c5.96-0.59,11.46-0.28,16.93-0.3c11.8,0.12,22.12-0.1,34.32,0.14
	c-1.13,1.03-1.66,1.59-2.29,2.07c-5.61,4.3-11.29,8.57-16.87,12.89c-2.93,1.89-3.85,4.29-3.79,7.32c0.15,8.6,0.05,17.2-0.17,25.8
	c-0.06,2.47,0.89,4.23,3.4,5.54c3.27,1.78,6.67,3.42,9.81,5.34C50.83,64.78,50.75,64.95,50.67,65.11z"/>
</svg>
