<?xml version="1.0" encoding="utf-8"?>
<!-- Generator: Adobe Illustrator 25.2.3, SVG Export Plug-In . SVG Version: 6.00 Build 0)  -->
<svg version="1.1" id="Layer_1" xmlns="http://www.w3.org/2000/svg" xmlns:xlink="http://www.w3.org/1999/xlink" x="0px" y="0px"
	 viewBox="0 0 983.7 1066.1" style="enable-background:new 0 0 983.7 1066.1;" xml:space="preserve">
<style type="text/css">
	.st0{fill:none;}
</style>
<g>
	<path class="st0" d="M421.1,513.4c-2.6-1.8-5.6-2.8-8-4.8c-2.8-2.3-2.9-4.9-4.6-7.7c-3.5-6-14.3-2.7-18.9-0.2
		c-1.2,0.6-2.3,1.4-3.4,2.1c-3.6,3-6.4,7-5.5,12c0.8,3.9,4.4,6,6.1,9.4c1.6,3.3,1.7,6.8,2,10.3c0.3,3,1.2,6.2,4.2,7.6
		c2.6,1.3,5.3-0.2,7.8-1.2c6.4-2.7,12.9-6.1,17.9-11C423.6,525.2,428.1,518.3,421.1,513.4z"/>
	<path class="st0" d="M378.5,586.5c-1.6-1.3-2.5-3-3-4.9c-1.7-4.1-2-8.6-1.9-13c0.1-4.9,1-9.4-3.2-12.8c-1.8-1.4-3.7-2.7-5.8-3.9
		c-7.5-2.2-16.9-1.3-22.9,0.9c-19.3,6.9-26.9,30.5-16,47.6c5.2,8.2,12,14.6,16,23.7c2.1,4.8,4.1,8.5,9.8,8.8c5,0.3,10.3-1,14.8-3.2
		c8.5-4.2,17.4-12.3,20.2-21.6c1.4-4.5,1.3-9.9-1.4-14C383.4,591.2,380.7,589.1,378.5,586.5z"/>
	<path class="st0" d="M470.7,736.5c0.2,0,0.4,0.1,0.7,0.1c-0.2-0.1-0.4-0.3-0.5-0.4C470.8,736.3,470.8,736.4,470.7,736.5z"/>
	<path class="st0" d="M472,645.9c-3.5-1-7.4-0.7-11-0.7c-7.9,0.1-15.5-0.7-21.8-6c-3.1-2.6-5.6-6.2-8.6-8.6
		c-16.2,1.7-26.8,19.6-25,35.6c0.9,8.1,6.8,14.3,10,21.5c1.3,2.9,1.5,7.6,4.3,9.1c2.8,1.5,7.4,1.2,10.4,1.2c8.4,0.2,17-1.2,24.6-5.1
		c6.2-3.2,13-8.8,13.2-16.4c0.1-4.3-1.4-8.2-0.2-12.5c1-3.7,3.2-6.8,5.2-10C475.2,650.6,477.1,647.3,472,645.9z"/>
	<path class="st0" d="M367,716.3c0.3-0.4,0.5-0.8,0.8-1.2c-0.1,0-0.1-0.1-0.2-0.1C367.5,715.5,367.2,715.9,367,716.3z"/>
	<path class="st0" d="M587.5,366.6c0,0.1-0.1,0.2-0.1,0.3c0.1,0,0.1,0.1,0.2,0.1C587.5,366.9,587.5,366.7,587.5,366.6z"/>
	<path class="st0" d="M497.4,731.2c0.4,0,0.9,0,1.3,0c-0.4-0.1-0.8-0.3-1.2-0.5C497.5,730.9,497.5,731,497.4,731.2z"/>
	<path class="st0" d="M662.9,618.4c-1.5-4-1.3-7.5-1.1-11.7c0.2-3.2-0.9-6.2-4.2-7.2c-3.4-1-7.1,1.3-10.2,2.4
		c-3.8,1.3-7.4,1.7-11.3,1.4c-4.2-0.3-6-0.3-7.6,3.8c-0.3,0.8-0.6,1.6-0.9,2.5c-1.1,4.4-2.9,8.6-5.3,12.6
		c-3.5,5.8-12.3,15.5-7.7,22.8c1.9,3,5.6,2.5,8.8,2.8c3.5,0.4,6.6,1.4,9.7,2.9c5.3,2.5,11.8,8.5,18,5.9c6.4-2.6,11.3-11,13.8-17
		c1.5-3.7,2.5-7.8,1.8-11.7C666,624.5,664.1,621.6,662.9,618.4z"/>
	<path class="st0" d="M597.8,562.1c-10.7-3.2-23-2.7-34.3-1.9c-11.7,3.7-23.6,11.3-23.2,24.8c0.5,15.7,19.5,21.1,32.2,21.7
		c14.8,0.7,31.5-3.5,38.7-17.8c0-0.3,0.1-0.6,0.2-0.9c1.3-4.7,1.5-9.5,0.4-14.1C608.7,568.3,604.1,564,597.8,562.1z"/>
	<path class="st0" d="M623.6,660.1c0.2,0,0.3,0,0.5,0c-0.2,0-0.4-0.1-0.6-0.1C623.5,660,623.5,660,623.6,660.1z"/>
	<path class="st0" d="M499.9,713.3c0.2,0,0.3,0.1,0.5,0.1c-0.2-0.3-0.3-0.6-0.4-0.9C499.9,712.8,499.9,713,499.9,713.3z"/>
	<path class="st0" d="M571.1,663.7c-0.7-4-0.7-8.4-4-11.3c-5.9-5.2-16-6.4-23.5-6c-16.2,1-30.1,12.2-35.3,27.4
		c-0.2,0.5-0.4,0.9-0.6,1.3c0,0.4,0,0.7,0,1.1c0.5,8.6,11.2,10,17,14.4c6.3,4.8,7,11.8,11.3,17.8c4.4,6.2,15.4,2.6,21.3,1
		c8-2.1,16.2-5.6,20.7-13c4.8-7.9,2.2-13.9-2.3-21.1C573.5,671.8,571.8,668,571.1,663.7z"/>
	<path class="st0" d="M606,719.1c0.8-0.2,1.5-0.5,2.3-0.8c0-0.1-0.1-0.2-0.1-0.3C607.4,718.4,606.7,718.7,606,719.1z"/>
	<path d="M707.6,581.9c-0.2-1.6-0.5-3.2-0.8-4.8c-0.1-11.9-5.6-24.5-13.8-33.1c-1-1.5-2.2-2.9-3.5-4.2c-7.6-7.5-18.5-10.3-28.9-10.3
		c-13.2-0.1-26.4,3.2-39.5,4.7c-6.9,0.8-13.7,1.4-20.6,1.8c-6.4-0.2-12.8-0.7-19.1-1.5c-21.2-4.5-41.4-13.7-58.6-27.2
		c-0.1-0.1-0.3-0.2-0.4-0.2c2.5-4.5,4.9-9,7.4-13.5c0.7-1,1.3-2,1.8-3c0.1-0.2,0.1-0.3,0.2-0.5c0.4-0.5,0.7-1,0.9-1.5
		c3.6-4.8,6.2-10.8,8.4-16.3c4.1-7.9,8.1-15.8,12.1-23.7c0,0,0,0,0,0c2.6,0.7,5.5-0.2,6.9-2.7c0.9-1.6,1-3.6,0.3-5.3
		c8.8-1,16.9-7.8,21.8-14.7c8-11.3,9.4-25.6,9.7-39c0-0.7-0.1-1.3-0.2-1.9c0.1-8.3-0.9-16.6-2.1-24.9c-0.2-1.6-2.5-1.3-2.9,0
		c-3.2,10.6-9.4,19.8-18,26.7c-4.2,2.2-7.9,5.1-11.6,8.2c-5.2,4.4-9.7,9-12.1,15.4c-2.2,6.1-3.6,14.2-1.4,20.6
		c-1.4,0.5-2.7,1.4-3.4,2.7c-1.2,2.3-0.9,4.5,0.3,6.4c-6,7.5-11.9,15-17.8,22.6c-2.1,2.5-4.1,5.1-6.1,7.6
		c-4.3,4.6-8.2,9.5-11.7,14.8c-0.1,0.1-0.1,0.2-0.2,0.3c-2.1,2.1-3.2,5-5.5,7c0,0,0,0,0,0c-24.4-17.8-55-23-84.8-18.3
		c-8.9,1.4-17.6,3.7-26.1,6.7c-14.3,4.3-27.8,11.5-40.2,19.6c-7.6,4.8-14.7,10.2-21.2,16.4c-4.6,4.4-8.6,9.2-12.2,14.3
		c-5.1,6.5-8.9,13.3-11.6,21.5c-0.1,0.2-0.1,0.3-0.1,0.5c-1.9,4.8-3.4,9.7-4.6,14.7c-2.5,6.2-3.6,12.7-3.7,19.8
		c-0.1,5.8-0.5,13.1,1.1,19.3c2.6,25.6,13.4,49.6,29.3,70c11.3,14.5,24.8,26.5,39.7,36.4c-6.6,14.2-18,25.8-26,39.2
		c-0.1,0.2-0.2,0.4-0.4,0.6c-0.1,0.1-0.2,0.2-0.3,0.3c-0.3,0.3-0.4,0.7-0.5,1c-4.4,7.4-8.7,14.9-12.5,22.7c-2,4.2-6.7,10.1-0.7,12.8
		c4.7,2,9.2-0.8,12.3-4.2c1-1.1,2-2.3,3-3.5c0.8-0.9,1.6-1.8,2.4-2.8c7.6-8.2,14-17.4,19-27.4c2.3-3.4,4.7-6.8,7-10.3
		c0.9-1.1,1.7-2.2,2.5-3.3c0.3-0.3,0.5-0.7,0.8-1c0.2-0.2,0.3-0.5,0.4-0.7c0.6-1,1.2-2.1,1.8-3.1c2.4-3.6,4.8-7.2,7.2-10.8
		c4.5,2.4,9.1,4.7,13.7,6.8c9.1,5.2,19.3,8.4,29.4,11.4c8.8,2.6,17.6,5.2,26.5,7.3c8.1,3,16.5,5,24.9,4.9c1.9,0.2,3.9,0.3,5.8,0.4
		c12.2,1.2,24.5,1.4,36.7,1.6c4.7,0.1,9.4,0,13.9-0.4c41.2-1.9,82.3-13.6,114.3-38.9c6.5-3.8,12.1-9,16.5-15.2
		c2.9-3.1,5.7-6.4,8.4-9.8c11.4-14.7,19.7-31.7,24.5-49.6c0.9-2.2,1.8-4.3,2.7-6.5C704.5,618.7,709.6,599.3,707.6,581.9z
		 M587.5,366.6c0,0.1,0,0.2,0,0.3c-0.1,0-0.1-0.1-0.2-0.1C587.4,366.8,587.5,366.7,587.5,366.6z M367,716.3c0.2-0.4,0.4-0.9,0.6-1.3
		c0.1,0,0.1,0.1,0.2,0.1C367.6,715.5,367.3,715.9,367,716.3z M386.7,608.1c-2.9,9.3-11.7,17.4-20.2,21.6c-4.5,2.2-9.8,3.5-14.8,3.2
		c-5.8-0.4-7.7-4-9.8-8.8c-4-9-10.8-15.5-16-23.7c-10.9-17.1-3.4-40.7,16-47.6c6-2.1,15.4-3.1,22.9-0.9c2.1,1.1,4,2.4,5.8,3.9
		c4.2,3.4,3.3,7.9,3.2,12.8c-0.1,4.4,0.2,8.9,1.9,13c0.5,1.9,1.3,3.6,3,4.9c2.2,2.6,4.9,4.7,6.8,7.6
		C388.1,598.2,388.1,603.6,386.7,608.1z M393,542.2c-3-1.4-3.9-4.6-4.2-7.6c-0.4-3.6-0.5-7.1-2-10.3c-1.7-3.4-5.3-5.5-6.1-9.4
		c-1-5,1.8-9,5.5-12c1.1-0.8,2.2-1.5,3.4-2.1c4.6-2.5,15.5-5.8,18.9,0.2c1.6,2.8,1.8,5.4,4.6,7.7c2.4,2,5.4,3,8,4.8
		c7,4.9,2.5,11.9-2.3,16.6c-5,4.9-11.5,8.3-17.9,11C398.3,542.1,395.6,543.5,393,542.2z M470.7,736.5c0-0.1,0.1-0.2,0.1-0.3
		c0.2,0.1,0.4,0.3,0.5,0.4C471.2,736.6,471,736.6,470.7,736.5z M473,654.1c-2,3.2-4.2,6.3-5.2,10c-1.1,4.3,0.3,8.2,0.2,12.5
		c-0.1,7.6-7,13.2-13.2,16.4c-7.5,3.9-16.2,5.3-24.6,5.1c-3-0.1-7.6,0.2-10.4-1.2c-2.8-1.5-3-6.2-4.3-9.1c-3.2-7.2-9.1-13.4-10-21.5
		c-1.7-16,8.8-33.9,25-35.6c3,2.4,5.5,6,8.6,8.6c6.2,5.3,13.9,6.1,21.8,6c3.6,0,7.5-0.4,11,0.7C477.1,647.3,475.2,650.6,473,654.1z
		 M497.4,731.2c0-0.1,0.1-0.3,0.1-0.4c0.4,0.2,0.8,0.3,1.2,0.5C498.3,731.2,497.9,731.2,497.4,731.2z M499.9,713.3
		c0-0.3,0-0.5,0.1-0.8c0.2,0.3,0.3,0.6,0.4,0.9C500.2,713.4,500,713.3,499.9,713.3z M578.1,696.5c-4.5,7.3-12.8,10.8-20.7,13
		c-6,1.6-16.9,5.2-21.3-1c-4.3-6.1-5-13-11.3-17.8c-5.7-4.3-16.4-5.8-17-14.4c0-0.4,0-0.7,0-1.1c0.2-0.4,0.5-0.8,0.6-1.3
		c5.2-15.2,19.2-26.4,35.3-27.4c7.5-0.5,17.6,0.8,23.5,6c3.3,2.9,3.3,7.3,4,11.3c0.8,4.3,2.4,8,4.7,11.7
		C580.2,682.6,582.9,688.6,578.1,696.5z M606,719.1c0.7-0.4,1.4-0.7,2.2-1.1c0,0.1,0.1,0.2,0.1,0.3
		C607.5,718.6,606.8,718.8,606,719.1z M611.3,587.8c-0.1,0.3-0.1,0.6-0.2,0.9c-7.1,14.3-23.9,18.5-38.7,17.8
		c-12.7-0.6-31.7-5.9-32.2-21.7c-0.4-13.5,11.5-21.1,23.2-24.8c11.3-0.8,23.6-1.2,34.3,1.9c6.4,1.9,11,6.3,13.9,11.7
		C612.8,578.3,612.6,583.1,611.3,587.8z M623.6,660.1c0,0,0-0.1-0.1-0.1c0.2,0,0.4,0.1,0.6,0.1C623.9,660.1,623.7,660.1,623.6,660.1
		z M664.9,639.5c-2.5,6-7.4,14.5-13.8,17c-6.3,2.5-12.7-3.4-18-5.9c-3.2-1.5-6.2-2.5-9.7-2.9c-3.2-0.3-6.8,0.2-8.8-2.8
		c-4.6-7.2,4.2-17,7.7-22.8c2.4-4,4.2-8.2,5.3-12.6c0.3-0.8,0.6-1.7,0.9-2.5c1.6-4.1,3.4-4.1,7.6-3.8c4,0.3,7.6,0,11.3-1.4
		c3.1-1.1,6.9-3.4,10.2-2.4c3.3,1,4.4,4.1,4.2,7.2c-0.2,4.2-0.4,7.7,1.1,11.7c1.2,3.1,3.1,6,3.7,9.3
		C667.4,631.7,666.4,635.8,664.9,639.5z"/>
</g>
</svg>
