<?xml version="1.0" encoding="utf-8"?>
<!-- Generator: Adobe Illustrator 24.2.1, SVG Export Plug-In . SVG Version: 6.00 Build 0)  -->
<svg version="1.1" id="Layer_1" xmlns="http://www.w3.org/2000/svg" xmlns:xlink="http://www.w3.org/1999/xlink" x="0px" y="0px"
	 viewBox="0 0 72 72" style="enable-background:new 0 0 72 72;" xml:space="preserve">
<style type="text/css">
	.st0{fill:#010101;}
</style>
<path class="st0" d="M2.37,49.8c6.64,0,13.14,0,19.74,0c-0.09-0.37-0.09-0.61-0.19-0.78c-4.42-7.17-6.94-14.91-6.95-23.39
	c0-2.02-0.01-4.05,0.12-6.07c0.18-2.78,0.53-3.07,3.23-3.11c6.53,0.13,13.06-0.31,19.59-0.35c6.61,0.03,13.23,0.09,19.83,0.42
	c3.54,0.18,6.85,1.32,9.21,4.34c3.75,4.79,2.24,11.36-3.24,13.94c-2.09,0.99-4.28,1.24-6.57,1.34c-4.38,0.18-3.04-0.4-4.94,3.52
	c-1.63,3.28-3.23,6.5-5.04,9.7c3.36,0,6.52-0.03,9.68,0.01c3.06,0.03,6.16-0.29,9.53,0.43c-0.46,1.34-0.8,2.33-1.24,3.59
	C46.35,53.4,27.6,53.3,8.84,53.74c-0.78,0.01-1.56,0-2.34-0.02C3.23,53.63,3.02,53.44,2.37,49.8z M54.2,20.82
	c-0.15,3.34-0.34,6.44-0.42,9.54c-0.04,1.55,0.35,2.05,1.88,2.03c1.69-0.02,3.43-0.17,5.04-0.63c2.17-0.62,3.57-2.13,3.74-4.53
	C64.94,21.58,58.9,19.89,54.2,20.82z"/>
</svg>
