<?xml version="1.0" encoding="utf-8"?>
<!-- Generator: Adobe Illustrator 24.2.1, SVG Export Plug-In . SVG Version: 6.00 Build 0)  -->
<svg version="1.1" id="Layer_1" xmlns="http://www.w3.org/2000/svg" xmlns:xlink="http://www.w3.org/1999/xlink" x="0px" y="0px"
	 viewBox="0 0 72 72" style="enable-background:new 0 0 72 72;" xml:space="preserve">
<style type="text/css">
	.st0{fill:#010101;}
</style>
<path class="st0" d="M1060.9,1807.71c-0.6-34.16,6.53-63.5,22.78-90.47c3.6-5.98,7.11-12.01,10.74-17.97
	c1.03-1.7,2.02-3.93,3.61-4.66c2.81-1.29,6.36-2.7,9.04-1.98c1.87,0.5,3.78,4.37,4.02,6.89c3.41,37.59,1.78,78.78,27.79,109.26
	c17.05,20.3,38.72,32.82,65.24,37.22c25.39,4.48,50.91,2.19,72.97-11.87c2.62-1.35,5.17-3.18,7.97-3.79
	c9.84-2.14,8.2,9.01,6.14,15.09c-12.29,40.77-49.61,63.67-88.42,74.42c-42.23,12.84-94.34-4.49-120.27-40.36
	c-2.62-3.81-5.16-7.78-6.98-12C1066.92,1847.52,1059.64,1827.19,1060.9,1807.71z"/>
<path class="st0" d="M17.63,2.3c1.98,0.21,1.87,1.45,1.87,2.6c0,5.12-0.02,10.23,0.02,15.35c0.01,1.23,0.18,2.46,0.34,3.69
	c0.1,0.77,0.44,1.6,1.36,1.42c0.63-0.12,1.48-0.61,1.68-1.14c0.36-0.97,0.41-2.09,0.42-3.14c0.07-5.28,0.06-10.56,0.13-15.84
	c0.01-0.81,0.17-1.64,0.4-2.41c0.09-0.31,0.6-0.72,0.88-0.69c0.41,0.04,1.03,0.35,1.13,0.69c0.26,0.84,0.38,1.76,0.39,2.65
	c0.07,5.61,0.09,11.22,0.14,16.83c0,0.66-0.1,1.41,0.17,1.94c0.29,0.57,0.99,1.32,1.5,1.31c0.55,0,1.34-0.7,1.57-1.27
	c0.32-0.81,0.27-1.78,0.29-2.68c0.12-5.11,0.21-10.23,0.34-15.34c0.03-1.07,0.07-2.16,0.32-3.18c0.1-0.39,0.77-0.81,1.23-0.88
	c0.26-0.04,0.78,0.56,0.91,0.96c0.17,0.53,0.08,1.14,0.08,1.72c-0.05,6.43-0.14,12.87-0.16,19.3c0,2.29-0.59,4.26-2.63,5.52
	c-2.43,1.5-3.19,3.71-3.33,6.47c-0.37,7.5-0.59,14.98,0.04,22.49c0.29,3.45,0.26,6.92,0.4,10.38c0.13,2.01-1.82,1.92-3.28,1.88
	c-1.87-0.07-2.38-0.48-2.33-2.37c0.59-9.29,0.93-18.6,1.25-27.91c0.05-1.32-0.01-2.64,0.07-3.95c0.19-3.07-1.02-5.51-3.44-7.26
	c-1.87-1.35-2.61-3.02-2.54-5.28c0.2-6.76,0.31-13.52,0.47-20.29C17.33,3.37,17.51,2.9,17.63,2.3z"/>
<path class="st0" d="M43.02,38.37c0.21-1.2,0.3-2.01,0.51-2.78c1.26-4.69,2.54-9.38,3.83-14.07c1.56-5.64,3.1-11.29,4.72-16.92
	c0.31-1.09,0.85-2.14,1.45-3.11c0.42-0.68,1.3-0.48,1.47,0.3c0.16,0.71,0.16,1.47,0.16,2.21c-0.1,13.94,0.03,27.9-0.44,41.83
	c0.04,6.1,0.23,12.2,0.3,18.3c0.02,1.56-0.14,3.13-0.26,4.69c-0.09,1.21-0.79,1.68-2,1.62c-1.66-0.09-2.41-0.46-2.44-1.8
	c-0.07-2.97-0.04-5.94,0.08-8.91c0.14-3.46,0.54-6.91,0.62-10.37c0.05-2.21-0.18-4.45-0.42-6.66c-0.33-2.99-1.1-3.65-4.05-3.92
	C45.48,38.7,44.43,38.54,43.02,38.37z"/>
</svg>
