<?xml version="1.0" encoding="utf-8"?>
<!-- Generator: Adobe Illustrator 25.2.3, SVG Export Plug-In . SVG Version: 6.00 Build 0)  -->
<svg version="1.1" id="Layer_1" xmlns="http://www.w3.org/2000/svg" xmlns:xlink="http://www.w3.org/1999/xlink" x="0px" y="0px"
	 viewBox="0 0 983.7 1066.1" style="enable-background:new 0 0 983.7 1066.1;" xml:space="preserve">
<g>
	<path d="M498.7,410.5c0.5-0.1,1-0.2,1.4-0.3c20.1-0.8,40.3,0,60.4,0.6c56.6,2.6,113.6,2.6,170.6,0.6c28.6,0,58.1,1.8,86.4-1.2
		c0.2,0.1,0.5,0.1,0.7,0.1c1,0,1.9,0,2.9,0c1.9,0,3.2-2.2,2.2-3.8c-0.5-0.8-1.2-1.3-2.1-1.5c-0.3-0.1-0.7-0.1-1.1-0.1H820
		c-0.2-0.1-0.4-0.1-0.6-0.2c-51.2-19.6-100.4-42.5-150.5-63.6c-0.1-0.3-0.3-0.5-0.7-0.7c-3-1.4-6.1-2.8-9.1-4.1c0,0,0,0-0.1,0
		c-0.1,0-0.1-0.1-0.2-0.1c-0.9-0.6-1.8,0-2.1,0.8h-0.3c-4.1,1.5-7.8,4-11.5,6.2c-5.8,3.4-12,6.1-18.2,8.8
		c-14.1,6.1-28.2,12.2-42.3,18.4c-8.5,3.7-17,7.4-25.5,11.1c-7.7,3.3-15.5,6.7-23.5,9.2c-11.5,3.6-23.8,5.6-34.3,11.3
		c-0.1,0-0.1,0-0.2,0.1c-2.6,0.9-8.2,3.2-6.8,6.9C494.7,411,496.8,410.8,498.7,410.5z"/>
	<path d="M792.8,432.5c0.2-2.6,0.3-5.2,0.4-7.8c0.1-2.3-2.4-2.9-3.9-2c-86.1-2.9-172.2-2.9-258.3-0.3c-1.5-0.8-3.8-0.1-3.8,2.1
		c0,2.5,0,4.9,0,7.4c0,1.4,1.1,2.4,2.5,2.5c6.3,0.3,12.5-0.3,18.8-0.8c80,0.2,159.9,0.4,239.9,0.6
		C789.8,435.5,792.6,434.9,792.8,432.5z"/>
	<path d="M677.3,582.4c0.1,0.2,0.3,0.4,0.5,0.5c0.2,0.2,0.6,0.4,1,0.4c9.2-0.2,18.4-0.7,27.6-1.1c1.8-0.1,5.6,0.6,7-1.2
		c0.7-0.9,0.5-2.2-0.1-3.5c-1.7-37.4-3.4-74.9-5.1-112.3c0-1.4,0-2.9,0.1-4.3c0.1-4.7,1.2-10.6-0.1-15.1c-0.1-0.5-0.5-0.9-1-1
		c-3.2-0.8-7.2-0.3-10.5-0.3c-4.4,0-8.7,0.1-13.1,0.3c-1.4,0-1.8,1.7-1.1,2.6c-2.8,44.3-4.4,88.7-4.8,133.1
		C677.1,580.9,676.9,581.7,677.3,582.4z"/>
	<path d="M750.2,581.4c0.6,0.7,1.3,0.7,1.8,0.3c0.6,0.1,1.3,0.1,2,0.1c9.3-0.1,18.7-0.3,28-0.4c1.2,0,2.5-0.1,3.2-1.1
		c0.5-0.7,0.5-1.5,0.4-2.4c-1.6-43.2-4-86.5-6.5-129.6c0-0.5-0.1-1-0.4-1.4c-0.4-0.5-1.1-0.5-1.7-0.5c-6.5-0.2-13.1-0.3-19.6-0.5
		c-0.1-0.1-0.2-0.2-0.3-0.2s-0.1-0.1-0.2-0.1c-0.3-0.1-0.6-0.2-0.8-0.1c-0.2,0-0.4,0.1-0.6,0.2c-0.8,0.4-0.9,1.3-0.5,2
		c0.1,0.2,0.2,0.4,0.3,0.6c-1.4,39.1-2.9,78.1-4.3,117.2c-0.2,0.2-0.4,0.6-0.4,1c-0.3,3.5-0.6,7.1-0.9,10.6
		c-0.1,0.8-0.2,1.8-0.1,2.7c0,0.1,0,0.2,0,0.4C749.3,580.6,749.7,581.1,750.2,581.4z"/>
	<path d="M845.3,633.5c-0.2,0-0.3,0-0.4,0.1c-0.9,0-1.7,0.1-2.6,0.2c-0.4,0.1-0.7,0.2-0.8,0.5c-3.4,0.2-6.8,0.2-10.2,0.2
		c0-7.7,0.2-15.3,0.5-23c0.1-1.4-1.5-1.8-2.4-1.2c-7.3-1.1-14.7-1.1-21.9,0c-0.1-4.9,0.3-10-0.3-14.8c0.1-0.8-0.2-1.6-1.1-1.8
		c-0.5-0.1-1.1,0-1.5,0.4c-5.9,0.1-11.8,0.2-17.7,0.3c-0.2-0.1-0.5-0.1-0.8-0.2c-15.8-0.5-31.6-0.9-47.4-0.2c-1.3,0-2.6,0-3.9,0
		c-0.3-0.1-0.5-0.2-0.9-0.2c-6.5-0.2-13-0.2-19.5,0c-0.2,0-0.3,0-0.5,0.1c-5.2-0.2-10.4,0-15.5,0c-8.5,0-16.9,0-25.4,0
		s-16.9,0-25.4,0c-4.3,0-8.7-0.1-13-0.1c-31.8-0.8-63.6-0.7-95.5-0.4c-7.6-0.4-15.3,0-22.9,0.1c-0.5,0-0.9,0.1-1.2,0.3
		c-1.5,0.1-1.8,2.2-1.8,3.6c0,3.8,0.1,7.6,0.4,11.4c-7.3,0.1-14.6,0.7-21.8,1.8c-0.5-0.3-1.2-0.4-1.7-0.1c-0.1,0.1-0.2,0.1-0.3,0.2
		c-0.3,0.2-0.5,0.6-0.5,1.1c0.1,7.3,0.3,14.6,0.6,21.8c-4.6,0.4-9.2,0.3-13.8-0.2c-1-0.9-2.5-0.8-3.1,0.5c-0.8,1.7-0.3,4.2-0.2,6
		c0.1,1.4-0.2,3.5,1.4,4.2c0.7,0.3,1.5,0.2,2.2,0.1c1.2-0.1,2.3-0.2,3.5-0.3c0.1,0,0.3,0,0.4-0.1c114.3,1.8,228.7,1.9,343.1,0.3
		c0.2,0.3,0.6,0.5,1.1,0.5c2.3,0,4.5,0,6.8-0.1c2.7,0,5.5,0.1,8.1-0.4c0.1,0,0.3-0.1,0.4-0.1c0.7,0,1.5-0.1,2.2-0.1
		c0.2,0.1,0.4,0.2,0.7,0.2c1.1,0,2.7,0.3,3.7-0.3c1.2-0.7,1-2.5,1.1-3.7C847.4,638.3,848.6,633.4,845.3,633.5z"/>
	<path d="M532.3,582.6c0.1,0.7,0.4,1.2,1.1,1.5c3.8,1.5,9,1.5,13.7,1.4c6.8,0.9,13.7,1.3,20.6,1.2c0.1,0,0.1,0,0.2,0
		c0.1,0,0.2,0,0.4,0c0.4,0,0.8-0.1,1.2-0.1c0.7-0.1,1.6-0.6,1.5-1.5c-0.8-6.2-1.6-12.4-2.3-18.5c-0.4-5.1-0.8-10.2-1.1-15.3
		c-0.5-34.6-1-69.1-1.6-103.7c0-1.2-0.7-2-1.7-2.3c-0.4-0.5-0.9-0.8-1.5-0.9c-0.2-0.1-0.4-0.1-0.5-0.2c-0.2,0-0.3,0-0.5,0l-2.7,0.2
		h-11.8h-4.7h-1.9h-0.1c-0.5,0-0.9,0.1-1.3,0.3c-1,0.3-2,1.3-1.8,2.4c0,0.4,0.1,0.8,0.1,1.2c-2.5,30.2-4,60.4-4.7,90.7
		c-0.2,7.5-0.3,15.1-0.3,22.7c0,3.9,0,7.9,0,11.8c0,2-0.4,4.6,0,6.7C532.4,580.8,532.2,581.7,532.3,582.6z"/>
	<path d="M544.3,444c-0.7-0.1-1.3,0.1-1.8,0.4h4.7C546.3,444.3,545.3,444.2,544.3,444z"/>
	<path d="M605.5,581.3c0.1,1.3,1.4,2.5,2.9,2.7c2.7,0.4,5.9-0.1,8.9-0.8h2.2c1.3,0,2.5,0,3.9,0h0.1h2.2c4.5-0.1,9-0.2,13.4-0.3
		c1.6-0.1,3.5-0.3,4.1-1.8c0.3-0.6,0.3-1.4,0.2-2.1c-0.9-19-1.7-38.1-2.6-57.1c-1-22.3-2-44.6-4-66.8c0.1-0.2,0.2-0.4,0.2-0.6
		c0.2-2.8,0.2-5.7,0.1-8.5c0-0.2-0.1-0.5-0.2-0.6c-0.1-0.7-0.8-1.3-1.5-1.3c-8.2-0.2-16.4-0.3-24.6-0.2c-1.5,0-1.8,1.9-1,2.7
		c-0.2,22.4-0.7,44.8-1.3,67.2h0.1v14.4c-0.2,6.8-0.3,13.7-0.3,20.5l-0.1,1.1l-2.6,30.5c-0.1,0.3-0.1,0.6-0.1,0.8V581.3l2.7,0.2h0
		L605.5,581.3z"/>
</g>
</svg>
